# xmcd
#
# Track frame offsets:
#	150
#	9865
#	22540
#	35887
#	47310
#	58337
#	69047
#	81267
#	90750
#	101765
#	115687
#	130125
#	141582
#	153060
#	167382
#	178182
#	190910
#	202707
#	215357
#	226125
#	239720
#	251507
#	262637
#	275592
#	286647
#	299895
#	312357
#	326022
#
# Disc length: 4468 seconds
#
# Revision: 3
# Processed by: cddbd v1.5.2PL0 Copyright (c) Steve Scherf et al.
# Submitted via: audiograbber 1.83.01
#
DISCID=7811721c
DTITLE=Various Artist - The Ultimate Sun Blues Collection [CD 2 of 2)
DYEAR=1991
DGENRE=Blues
TTITLE0=Houston Stokes - Baby's Gone And Left Me
TTITLE1=Jackie Brenston - Rocket 88
TTITLE2=Junior Parker - Feelin' Good
TTITLE3=Willie Nix - Baker Shop Boogie
TTITLE4=Little Milton - Beggin' For My Baby
TTITLE5=Billy "The Kid" Emerson - Shim Sham Shimmy
TTITLE6=Rufus Thomas - Save That Money
TTITLE7=Pat Hare - Bonus Pay
TTITLE8=Jackie Brenston - My Real Gone Rocket
TTITLE9=Rosco Gordon - I Found A New Love
TTITLE10=Eddie Snow - Bring Your Love Back Home
TTITLE11=Junior Parker - Love My Baby
TTITLE12=Doctor Ross - Jukebox Boogie
TTITLE13=Billy "The Kid" Emerson - When It Rains, It Really Pours
TTITLE14=James Cotton - My Baby
TTITLE15=Rosco Gordon - Cheese and Crackers
TTITLE16=Little Milton - Lookin' For My Baby
TTITLE17=Rufus Thomas - Tiger Man
TTITLE18=Junior Parker - Mystery Train
TTITLE19=James Cotton - Cotton Crop Blues
TTITLE20=Eddie Snow - Ain't That Right
TTITLE21=Billy "The Kid" Emerson - Red Hot
TTITLE22=Rufus Thomas - Bear Cat
TTITLE23=Little Milton - If You Love Me
TTITLE24=Pat Hare - I'm Gonna Murder My Baby
TTITLE25=Billy '"The Kid" Emerson - Move Baby Move
TTITLE26=Willie Nix - Midnight Showers Of Rain
TTITLE27=Rosco Gordon - I'm Gonna Shake It
EXTD=Input by Bill (whall@netcomuk.co.uk)
EXTT0=
EXTT1=
EXTT2=
EXTT3=
EXTT4=
EXTT5=
EXTT6=
EXTT7=
EXTT8=
EXTT9=
EXTT10=
EXTT11=
EXTT12=
EXTT13=
EXTT14=
EXTT15=
EXTT16=
EXTT17=
EXTT18=
EXTT19=
EXTT20=
EXTT21=
EXTT22=
EXTT23=
EXTT24=
EXTT25=
EXTT26=
EXTT27=
PLAYORDER=
